[h264 @ 0x55a74a78c880] Reinit context to 1280x720, pix_fmt: yuv420p
Input #0, mov,mp4,m4a,3gp,3g2,mj2, from '/var/www/html/project/media/video/original/VID-20250523-WA0038.mp4':
  Metadata:
    major_brand     : mp42
    minor_version   : 0
    compatible_brands: mp42isom
  Duration: 00:01:15.72, start: 0.000000, bitrate: 2720 kb/s
    Stream #0:0(und): Video: h264 (High), 1 reference frame (avc1 / 0x31637661), yuv420p(tv, bt470bg/bt470bg/smpte170m, left), 1280x720, 2535 kb/s, 30 fps, 30 tbr, 30k tbn, 60k tbc (default)
    Stream #0:1(und): Audio: aac (LC) (mp4a / 0x6134706D), 44100 Hz, stereo, fltp, 183 kb/s (default)
[h264 @ 0x55a74a78fa40] Reinit context to 1280x720, pix_fmt: yuv420p
Input #1, mov,mp4,m4a,3gp,3g2,mj2, from '/var/www/html/project/static/images/templates/Codino.mp4':
  Metadata:
    major_brand     : mp42
    minor_version   : 1
    compatible_brands: isommp41mp42
    creation_time   : 2021-07-11T07:02:58.000000Z
  Duration: 00:00:02.00, start: 0.000000, bitrate: 1007 kb/s
    Stream #1:0(ita): Audio: aac (LC) (mp4a / 0x6134706D), 44100 Hz, stereo, fltp, 102 kb/s (default)
    Metadata:
      creation_time   : 2021-07-11T07:02:58.000000Z
      handler_name    : Core Media Audio
    Stream #1:1(und): Video: h264 (High), 1 reference frame (avc1 / 0x31637661), yuv420p(tv, bt709, progressive, left), 1280x720 [SAR 1:1 DAR 16:9], 813 kb/s, 25 fps, 25 tbr, 25k tbn, 50k tbc (default)
    Metadata:
      creation_time   : 2021-07-11T07:02:58.000000Z
      handler_name    : Core Media Video
[Parsed_scale_0 @ 0x55a74a7f9400] w:1280 h:720 flags:'bilinear' interl:0
[Parsed_scale_2 @ 0x55a74a7f9140] w:1280 h:720 flags:'bilinear' interl:0
Stream mapping:
  Stream #0:0 (h264) -> scale
  Stream #0:1 (aac) -> concat:in0:a0
  Stream #1:0 (aac) -> concat:in1:a0
  Stream #1:1 (h264) -> scale
  concat:out:v0 -> Stream #0:0 (libx264)
  concat:out:a0 -> Stream #0:1 (aac)
Press [q] to stop, [?] for help
[h264 @ 0x55a74a7fbb80] Reinit context to 1280x720, pix_fmt: yuv420p
[h264 @ 0x55a74ac0ce80] Reinit context to 1280x720, pix_fmt: yuv420p
[Parsed_scale_0 @ 0x55a74ba27180] w:1280 h:720 flags:'bilinear' interl:0
[Parsed_scale_2 @ 0x55a74ba2f980] w:1280 h:720 flags:'bilinear' interl:0
[graph 0 input from stream 0:0 @ 0x55a74ba32a00] w:1280 h:720 pixfmt:yuv420p tb:1/30000 fr:30/1 sar:0/1 sws_param:flags=2
[graph 0 input from stream 1:1 @ 0x55a74ba33a80] w:1280 h:720 pixfmt:yuv420p tb:1/25000 fr:25/1 sar:1/1 sws_param:flags=2
[graph_0_in_0_1 @ 0x55a74ba34a40] tb:1/44100 samplefmt:fltp samplerate:44100 chlayout:0x3
[graph_0_in_1_0 @ 0x55a74ba35b80] tb:1/44100 samplefmt:fltp samplerate:44100 chlayout:0x3
[Parsed_scale_0 @ 0x55a74ba27180] w:1280 h:720 fmt:yuv420p sar:0/1 -> w:1280 h:720 fmt:yuv420p sar:0/1 flags:0x2
[Parsed_setsar_1 @ 0x55a74ba2f2c0] w:1280 h:720 sar:0/1 dar:16/9 -> sar:1/1 dar:16/9
[Parsed_scale_2 @ 0x55a74ba2f980] w:1280 h:720 fmt:yuv420p sar:1/1 -> w:1280 h:720 fmt:yuv420p sar:1/1 flags:0x2
[Parsed_setsar_3 @ 0x55a74ba2fec0] w:1280 h:720 sar:1/1 dar:16/9 -> sar:1/1 dar:16/9
[libx264 @ 0x55a74a8421c0] using SAR=1/1
[libx264 @ 0x55a74a8421c0] using cpu capabilities: MMX2 SSE2Fast SSSE3 SSE4.2 AVX FMA3 BMI2 AVX2
[libx264 @ 0x55a74a8421c0] profile High, level 3.1
[libx264 @ 0x55a74a8421c0] 264 - core 155 r2917 0a84d98 - H.264/MPEG-4 AVC codec - Copyleft 2003-2018 - http://www.videolan.org/x264.html - options: cabac=1 ref=1 deblock=1:0:0 analyse=0x3:0x113 me=hex subme=2 psy=1 psy_rd=1.00:0.00 mixed_ref=0 me_range=16 chroma_me=1 trellis=0 8x8dct=1 cqm=0 deadzone=21,11 fast_pskip=1 chroma_qp_offset=0 threads=22 lookahead_threads=5 sliced_threads=0 nr=0 decimate=1 interlaced=0 bluray_compat=0 constrained_intra=0 bframes=3 b_pyramid=2 b_adapt=1 b_bias=0 direct=1 weightb=1 open_gop=0 weightp=1 keyint=250 keyint_min=25 scenecut=40 intra_refresh=0 rc_lookahead=10 rc=crf mbtree=1 crf=18.0 qcomp=0.60 qpmin=0 qpmax=69 qpstep=4 ip_ratio=1.40 aq=1:1.00
Output #0, mp4, to '/var/www/html/project/media/video/watermarks/VID-20250523-WA0038.mp4':
  Metadata:
    major_brand     : mp42
    minor_version   : 0
    compatible_brands: mp42isom
    encoder         : Lavf58.29.100
    Stream #0:0: Video: h264 (libx264), 1 reference frame (avc1 / 0x31637661), yuv420p(progressive), 1280x720 [SAR 1:1 DAR 16:9], q=-1--1, 30 fps, 15360 tbn, 30 tbc (default)
    Metadata:
      encoder         : Lavc58.54.100 libx264
    Side data:
      cpb: bitrate max/min/avg: 0/0/0 buffer size: 0 vbv_delay: -1
    Stream #0:1: Audio: aac (LC) (mp4a / 0x6134706D), 44100 Hz, stereo, fltp, delay 1024, 128 kb/s (default)
    Metadata:
      encoder         : Lavc58.54.100 aac
[Parsed_concat_4 @ 0x55a74ba30a40] EOF on in0:v0, 1 streams left in segment.
[Parsed_concat_4 @ 0x55a74ba30a40] EOF on in0:a0, 0 streams left in segment.
[Parsed_concat_4 @ 0x55a74ba30a40] Segment finished at pts=75720408
[Parsed_concat_4 @ 0x55a74ba30a40] EOF on in1:a0, 1 streams left in segment.
[Parsed_concat_4 @ 0x55a74ba30a40] EOF on in1:v0, 0 streams left in segment.
[Parsed_concat_4 @ 0x55a74ba30a40] Segment finished at pts=77739093
No more output streams to write to, finishing.
frame= 2321 fps= 65 q=-1.0 Lsize=   33211kB time=00:01:17.74 bitrate=3499.6kbits/s speed=2.17x    
[AVIOContext @ 0x55a74a78ac00] Statistics: 0 seeks, 71 writeouts
video:31919kB audio:1215kB subtitle:0kB other streams:0kB global headers:0kB muxing overhead: 0.232523%
Input file #0 (/var/www/html/project/media/video/original/VID-20250523-WA0038.mp4):
  Input stream #0:0 (video): 2271 packets read (23995298 bytes); 2271 frames decoded; 
  Input stream #0:1 (audio): 3261 packets read (1732295 bytes); 3261 frames decoded (3339264 samples); 
  Total: 5532 packets (25727593 bytes) demuxed
Input file #1 (/var/www/html/project/static/images/templates/Codino.mp4):
  Input stream #1:0 (audio): 89 packets read (26579 bytes); 87 frames decoded (89024 samples); 
  Input stream #1:1 (video): 50 packets read (203365 bytes); 50 frames decoded; 
  Total: 139 packets (229944 bytes) demuxed
Output file #0 (/var/www/html/project/media/video/watermarks/VID-20250523-WA0038.mp4):
  Output stream #0:0 (video): 2321 frames encoded; 2321 packets muxed (32685234 bytes); 
  Output stream #0:1 (audio): 3348 frames encoded (3428288 samples); 3349 packets muxed (1243936 bytes); 
  Total: 5670 packets (33929170 bytes) muxed
[AVIOContext @ 0x55a74a846280] Statistics: 2 seeks, 133 writeouts
[libx264 @ 0x55a74a8421c0] frame I:22    Avg QP:14.10  size: 54153
[libx264 @ 0x55a74a8421c0] frame P:1469  Avg QP:18.03  size: 17679
[libx264 @ 0x55a74a8421c0] frame B:830   Avg QP:19.79  size:  6653
[libx264 @ 0x55a74a8421c0] consecutive B-frames: 46.5% 13.7% 11.0% 28.8%
[libx264 @ 0x55a74a8421c0] mb I  I16..4: 21.0% 44.5% 34.5%
[libx264 @ 0x55a74a8421c0] mb P  I16..4:  7.4% 15.8%  1.8%  P16..4: 32.1% 12.0%  8.0%  0.0%  0.0%    skip:23.0%
[libx264 @ 0x55a74a8421c0] mb B  I16..4:  2.1%  3.4%  0.1%  B16..8: 24.3%  7.9%  1.0%  direct:13.2%  skip:48.1%  L0:47.1% L1:38.7% BI:14.2%
[libx264 @ 0x55a74a8421c0] 8x8 transform intra:62.1% inter:54.3%
[libx264 @ 0x55a74a8421c0] coded y,uvDC,uvAC intra: 45.4% 70.4% 16.4% inter: 14.7% 27.4% 0.9%
[libx264 @ 0x55a74a8421c0] i16 v,h,dc,p: 48% 29% 18%  6%
[libx264 @ 0x55a74a8421c0] i8 v,h,dc,ddl,ddr,vr,hd,vl,hu: 26% 39% 19%  2%  2%  3%  4%  3%  3%
[libx264 @ 0x55a74a8421c0] i4 v,h,dc,ddl,ddr,vr,hd,vl,hu: 29% 30% 11%  4%  5%  5%  6%  5%  5%
[libx264 @ 0x55a74a8421c0] i8c dc,h,v,p: 42% 30% 20%  8%
[libx264 @ 0x55a74a8421c0] Weighted P-Frames: Y:1.0% UV:0.5%
[libx264 @ 0x55a74a8421c0] kb/s:3365.20
[aac @ 0x55a74a846480] Qavg: 867.700
[AVIOContext @ 0x55a74a793ac0] Statistics: 101618026 bytes read, 2759 seeks
[AVIOContext @ 0x55a74a7aad80] Statistics: 1530915 bytes read, 42 seeks
